<svg xmlns="http://www.w3.org/2000/svg" viewBox="0 0 64 64" role="img" aria-label="Chest X-ray">
  <rect width="64" height="64" rx="14" fill="#2f302e"/>
  <rect x="10" y="8" width="44" height="48" rx="6" fill="#f4f4f2" opacity=".95"/>
  <rect x="14" y="12" width="36" height="40" rx="4" fill="#5d789f" opacity=".2"/>
  <path d="M32 14v36" stroke="#2f302e" stroke-width="3.2" stroke-linecap="round" opacity=".62"/>
  <path
    d="M29.6 20c-7.5 2.2-12.4 8.5-12.4 16.6 0 6.4 3.2 10.6 7.5 10.6 3.2 0 4.9-2.9 4.9-7.2V20z"
    fill="#5d789f"
    opacity=".78"
  />
  <path
    d="M34.4 20c7.5 2.2 12.4 8.5 12.4 16.6 0 6.4-3.2 10.6-7.5 10.6-3.2 0-4.9-2.9-4.9-7.2V20z"
    fill="#5d789f"
    opacity=".78"
  />
  <path
    d="M22 24c3.9 1.2 7.1 1.8 10 1.8s6.1-.6 10-1.8M19.5 30.5c4.9 1.8 9.1 2.7 12.5 2.7s7.6-.9 12.5-2.7M18.6 37.2c5.4 2.1 9.9 3.1 13.4 3.1s8-1 13.4-3.1"
    fill="none"
    stroke="#f7f7f4"
    stroke-width="2.2"
    stroke-linecap="round"
    opacity=".9"
  />
  <path
    d="M23.5 18.5c2.7-1.9 5.5-2.8 8.5-2.8s5.8.9 8.5 2.8"
    fill="none"
    stroke="#f7f7f4"
    stroke-width="2"
    stroke-linecap="round"
    opacity=".75"
  />
  <circle cx="21" cy="17" r="1.5" fill="#f7f7f4" opacity=".7"/>
  <circle cx="43" cy="17" r="1.5" fill="#f7f7f4" opacity=".7"/>
</svg>
